<?xml version="1.0" encoding="UTF-8"?>
<svg width="14px" height="14px" viewBox="0 0 14 14" version="1.1" xmlns="http://www.w3.org/2000/svg" xmlns:xlink="http://www.w3.org/1999/xlink">
    <title>Path</title>
    <g id="Page-1" stroke="none" stroke-width="1" fill="none" fill-rule="evenodd">
        <g id="home-1-a" transform="translate(-250.000000, -2121.000000)" fill="#FFFFFF" fill-rule="nonzero">
            <g id="Footer" transform="translate(0.000000, 2003.000000)">
                <path d="M259.041883,131.94237 L258.995389,131.94237 C258.644701,131.921233 258.352112,131.666808 258.282483,131.322452 L257.089141,125.456476 C257.027055,125.152051 256.789145,124.914141 256.484721,124.852056 L250.618745,123.658713 C250.273709,123.590187 250.018122,123.297844 249.996292,122.946748 C249.974462,122.595652 250.191868,122.2739 250.525757,122.16316 L262.924121,118.032955 C263.208499,117.915534 263.535409,117.977475 263.75712,118.190789 C263.978832,118.404102 264.053345,118.728378 263.946986,119.017076 L259.816781,131.41544 C259.705975,131.745059 259.389156,131.960496 259.041883,131.94237 Z" id="Path"></path>
            </g>
        </g>
    </g>
</svg>