<?xml version="1.0" encoding="UTF-8"?>
<svg width="44px" height="48px" viewBox="0 0 44 48" version="1.1" xmlns="http://www.w3.org/2000/svg" xmlns:xlink="http://www.w3.org/1999/xlink">
    <title>Group 5</title>
    <g id="Page-1" stroke="none" stroke-width="1" fill="none" fill-rule="evenodd">
        <g id="Artboard" transform="translate(-48.000000, -89.000000)">
            <g id="Group-5" transform="translate(48.000000, 89.000000)">
                <rect id="Rectangle" stroke="#404040" x="0.5" y="0.5" width="43" height="43" rx="21.5"></rect>
                <rect id="Rectangle" fill="#000000" x="5" y="14" width="34" height="34" rx="17"></rect>
                <g id="noun_Mining_2085877" transform="translate(2.000000, 10.000000)" fill="#E41E15" fill-rule="nonzero">
                    <g id="Group">
                        <path d="M15.2454997,17.5239605 C15.6667578,17.777438 15.9616384,17.9041768 16.0037642,17.946423 C16.7620288,18.2843931 17.6466707,17.9886693 17.9836772,17.2282367 C18.2364321,16.7212816 18.1521804,16.1298341 17.815174,15.6651253 L24.3025484,11.0180372 C25.3978194,12.5811486 26.3245872,14.1442601 27.0828517,15.5806327 C27.251355,15.8763565 27.672613,15.7496178 27.672613,15.4116477 C27.672613,13.9330288 26.9564743,11.9474548 25.6927001,10.0041271 L26.3245872,9.53941825 C26.6194678,9.32818697 26.7037195,8.90572442 26.4930904,8.56775438 C26.2824614,8.27203059 25.8612033,8.18753808 25.5241968,8.39876936 L24.8923097,8.86347817 C23.4600322,7.04688919 21.8592515,5.77950154 20.4690999,5.31479273 C20.1320934,5.18805396 19.9214644,5.61051652 20.1320934,5.82174779 C21.2273644,7.00464294 22.3647612,8.3565231 23.5021581,9.83514203 L16.5935255,14.8624464 C16.0880158,14.5667226 15.4140029,14.0597676 14.8663674,13.3838275 C14.6136126,13.0881037 14.3187319,12.5811486 14.0238513,12.1164398 C13.3498383,11.0180372 12.7179512,10.0463733 11.8333092,9.62391076 C11.0329189,9.24369446 9.68489304,8.77898566 9.68489304,8.77898566 L9.68489304,8.77898566 C8.29474137,8.18753808 7.45222521,8.7367394 6.82033809,9.24369446 C5.76719289,10.0886196 4.04003477,13.5950587 3.32389603,15.791864 C2.43925406,17.9041768 2.77626053,20.4389521 3.07114118,22.5090186 C3.1553928,23.2272049 3.32389603,24.1988688 3.28177022,24.5368388 C2.43925406,26.226689 0.248712047,31.1695009 0.164460431,31.4229784 C-0.256797649,32.3101498 0.164460431,33.3663062 1.0491024,33.7887687 C1.30185725,33.8732612 1.51248629,33.9155075 1.76524113,33.9155075 C2.43925406,33.9155075 3.11326699,33.5352912 3.40814765,32.8593511 C3.45027345,32.8171049 5.76719289,27.536323 6.52545744,26.0154578 C6.94671552,25.1705327 6.90458971,24.1143763 6.73608648,22.8469886 C7.57860264,23.903145 8.37899299,25.1282864 8.71599945,25.8042265 C8.84237688,26.5646591 8.63174784,29.521897 8.33686718,31.8876872 C8.21048976,32.8593511 8.92662849,33.7465225 9.89552208,33.8732612 C9.97977369,33.8732612 10.0640253,33.8732612 10.1061511,33.8732612 C10.9907931,33.8732612 11.7490576,33.1973212 11.8754351,32.3101498 C12.6758254,25.888719 12.1703157,24.7903164 12.0018125,24.4101001 C11.7911834,23.9876375 10.5274092,21.7063397 8.88450268,19.8475045 C9.01088011,19.4672882 9.17938334,19.0448257 9.34788657,18.5378706 C10.2325285,19.3827957 11.0750447,20.0164895 11.4963028,20.3544596 C11.7490576,20.5656909 12.0860641,20.6501834 12.3809447,20.6501834 C12.8443286,20.6501834 13.3077125,20.4389521 13.6025932,20.0587358 C13.9395996,19.594027 13.9817255,19.0025794 13.7289706,18.5378706 L15.2454997,17.5239605 Z M10.6116608,15.622879 C10.9065415,14.9891852 11.2435479,14.3554913 11.5805544,13.80629 C11.9175609,14.3132451 12.2545673,14.8624464 12.5915738,15.284909 C13.0549577,15.8341103 13.5604674,16.2988191 14.0659771,16.6790354 L12.8022028,17.608453 C11.9596867,16.9747592 11.2014221,16.2565728 10.6116608,15.622879 Z" id="Shape"></path>
                        <path d="M39.973349,33.0705824 L37.6143037,24.1988688 C37.5721779,24.1143763 37.5300521,24.0298838 37.4879263,23.9453913 L35.3816359,21.1571384 C35.2973843,21.0726459 35.2552585,20.9459071 35.2552585,20.8191684 L34.4127423,14.9469389 C34.3284907,14.5244764 33.9072326,14.2287526 33.4859745,14.3554913 L31.5060616,14.9046927 C31.3375583,14.9469389 31.2111809,15.0314314 31.0848035,15.2004164 L27.9253679,19.6785195 C27.7568647,19.931997 27.461984,20.0164895 27.2092292,19.9742433 L24.0497936,19.3827957 C23.7127871,19.3405495 23.3757806,19.5095345 23.2494032,19.8052583 L21.5222451,23.565175 C21.4379935,23.7764062 21.2694902,23.903145 21.0588612,23.9453913 L17.2675385,25.0015476 C17.0147836,25.0860402 16.8041546,25.2550252 16.7620288,25.5085027 L14.73999,33.0705824 C14.6136126,33.5352912 14.950619,34 15.4561287,34 L39.2572102,34 C39.7627199,34 40.0997264,33.5352912 39.973349,33.0705824 Z" id="Path"></path>
                        <path d="M10.9907931,8.39876936 C12.6758254,9.1169557 14.5714868,8.3565231 15.3297513,6.75116541 L9.26363496,3.66718878 C9.22150915,3.75168129 9.17938334,3.87842005 9.13725753,3.96291256 C8.4211188,5.69500903 9.22150915,7.68058302 10.9907931,8.39876936 Z" id="Path"></path>
                        <path d="M9.5163898,2.86450993 L16.3407707,6.32870285 C16.5513997,6.41319536 16.8041546,6.37094911 16.8884062,6.15971783 L16.8884062,6.11747158 C16.9726578,5.9062403 16.8884062,5.65276277 16.719903,5.56827026 L16.2565191,5.31479273 C16.7620288,4.13189759 16.5935255,2.78001742 15.8773868,1.76610729 L15.624632,2.27306236 C15.5825062,2.39980112 15.4561287,2.44204738 15.3297513,2.44204738 C15.2876255,2.44204738 15.2454997,2.44204738 15.2033739,2.39980112 C15.0348707,2.31530861 14.9927448,2.10407734 15.0769965,1.97733857 L15.5825062,1.0056747 C15.6667578,0.836689681 15.5825062,0.66770466 15.4561287,0.58321215 L14.3608577,0.0340108322 C14.1923545,-0.0504816782 14.0238513,0.0340108322 13.9395996,0.160749598 L13.4340899,1.17465972 C13.3919641,1.30139849 13.2655867,1.34364474 13.1392093,1.34364474 C13.0970835,1.34364474 13.0549577,1.34364474 13.0128319,1.30139849 C12.8443286,1.21690598 12.8022028,1.0056747 12.8864544,0.878935936 L13.1813351,0.245242108 C11.8754351,0.202995853 10.6537866,0.836689681 9.97977369,2.01958483 L9.97977369,2.01958483 C9.76914465,1.93509232 9.5163898,1.97733857 9.43213819,2.18856985 L9.43213819,2.18856985 C9.26363496,2.52653989 9.34788657,2.78001742 9.5163898,2.86450993 Z" id="Path"></path>
                    </g>
                </g>
            </g>
        </g>
    </g>
</svg>