<?xml version="1.0" encoding="UTF-8"?>
<svg width="14px" height="14px" viewBox="0 0 14 14" version="1.1" xmlns="http://www.w3.org/2000/svg" xmlns:xlink="http://www.w3.org/1999/xlink">
    <title>Path</title>
    <g id="Page-1" stroke="none" stroke-width="1" fill="none" fill-rule="evenodd">
        <g id="home-1-a" transform="translate(-648.000000, -2159.000000)" fill="#FFFFFF" fill-rule="nonzero">
            <g id="Footer" transform="translate(0.000000, 2003.000000)">
                <path d="M658.758481,169.972146 C652.819927,169.964322 648.007697,165.152092 648,159.213538 C648,157.438731 649.438765,155.999886 651.213572,155.999886 C651.39405,155.998591 651.574225,156.01497 651.751496,156.048868 C651.922871,156.074227 652.091343,156.116345 652.25449,156.174616 C652.487957,156.256532 652.660681,156.455828 652.708582,156.698568 L653.665668,160.890184 C653.718085,161.121364 653.649697,161.363352 653.484031,161.532899 C653.393213,161.630703 653.386227,161.637689 652.526945,162.084795 C653.215065,163.594375 654.422393,164.806661 655.92914,165.500962 C656.383232,164.634695 656.390218,164.627709 656.488022,164.53689 C656.65757,164.371224 656.899557,164.302836 657.130737,164.355254 L661.322353,165.312339 C661.557119,165.366809 661.747232,165.538439 661.825347,165.766431 C661.884309,165.93225 661.928721,166.102887 661.958081,166.276411 C661.986197,166.451988 662.000213,166.629535 662,166.807349 C661.97318,168.573966 660.525233,169.987586 658.758481,169.972146 L658.758481,169.972146 Z" id="Path"></path>
            </g>
        </g>
    </g>
</svg>