<?xml version="1.0" encoding="UTF-8"?>
<svg width="44px" height="44px" viewBox="0 0 44 44" version="1.1" xmlns="http://www.w3.org/2000/svg" xmlns:xlink="http://www.w3.org/1999/xlink">
    <title>Group 6</title>
    <g id="Page-1" stroke="none" stroke-width="1" fill="none" fill-rule="evenodd">
        <g id="Artboard" transform="translate(-48.000000, -21.000000)">
            <g id="Group-6" transform="translate(48.000000, 21.000000)">
                <rect id="Rectangle" stroke="#404040" fill="#000000" x="0.5" y="0.5" width="43" height="43" rx="21.5"></rect>
                <rect id="Rectangle" fill="#000000" x="7" y="35" width="31" height="9"></rect>
                <g id="noun_miner_2188168" transform="translate(7.000000, 9.000000)" fill="#E41E15" fill-rule="nonzero">
                    <g id="Group">
                        <path d="M22.3888665,23.0781263 L22.3888665,23.6250012 C22.3888665,27.258307 20.5842411,31.5000003 15.4999972,31.5000003 C10.4157533,31.5000003 8.61112781,27.258307 8.61112781,23.6250012 L8.61112781,23.0655263 C8.02294643,23.2030617 7.44670098,23.388805 6.88804936,23.6209325 L6.88891047,23.6250012 C6.88891047,27.0822571 6.88891047,29.0561693 5.16669313,30.9753503 L5.16669313,34.9999998 L25.8333012,34.9999998 L25.8333012,30.9753503 C24.113495,29.0588381 24.1110839,27.0870696 24.1110839,23.63887 C23.5525653,23.4058116 22.9766737,23.2183047 22.3888665,23.0781263 L22.3888665,23.0781263 Z" id="Path"></path>
                        <path d="M0,34.1249999 C-9.60691799e-05,34.3571071 0.0905835677,34.5797477 0.252102515,34.7438722 C0.413621462,34.9079968 0.632727534,35.0001392 0.861149778,35 L3.44447579,35 L3.44447579,30.6250004 C3.4444402,30.3929336 3.53519027,30.1703703 3.69673757,30.0063317 C5.02921713,28.6524006 5.15291539,27.333907 5.16458341,24.5272574 C1.93856908,26.6161626 -0.0103200685,30.2379621 0,34.1249999 L0,34.1249999 Z" id="Path"></path>
                        <path d="M25.8354971,24.5455011 C25.8475956,27.3401195 25.9736189,28.6552881 27.3032568,30.0063317 C27.4648041,30.1703703 27.5555542,30.3929336 27.5555186,30.6250004 L27.5555186,35 L30.1388446,35 C30.3672668,35.0001392 30.5863729,34.9079968 30.7478918,34.7438722 C30.9094108,34.5797477 31.0000904,34.3571071 31,34.1249999 C31.0110073,30.2426883 29.0612263,26.6260587 25.8354971,24.5455011 L25.8354971,24.5455011 Z" id="Path"></path>
                        <path d="M10.3333452,22.8424013 L10.3333452,23.6250012 C10.3333452,26.5866571 11.6905816,29.7500005 15.4999972,29.7500005 C19.3094128,29.7500005 20.6666492,26.5868759 20.6666492,23.6250012 L20.6666492,22.8424013 C17.5655809,25.0525316 13.4344135,25.0525316 10.3333452,22.8424013 Z" id="Path"></path>
                        <path d="M24.1110839,12.2500026 L6.88891047,12.2500026 C6.88891047,18.0400519 10.7521454,22.7500026 15.4999972,22.7500026 C20.247849,22.7500026 24.1110839,18.0400519 24.1110839,12.2500026 Z" id="Path"></path>
                        <path d="M24.9721926,8.75000306 L24.1110839,8.75000306 C24.0991532,7.85727842 23.951361,6.97180419 23.6729518,6.12500338 L20.6666492,6.12500338 C20.191072,6.12500338 19.8055405,5.73325258 19.8055405,5.25000349 C19.8055405,4.76675439 20.191072,4.37500359 20.6666492,4.37500359 L22.91664,4.37500359 C21.3963864,1.66973909 18.5657925,0 15.4999972,0 C12.4342019,0 9.60360798,1.66973909 8.08335431,4.37500359 L10.3333452,4.37500359 C10.8089223,4.37500359 11.1944538,4.76675439 11.1944538,5.25000349 C11.1944538,5.73325258 10.8089223,6.12500338 10.3333452,6.12500338 L7.75001914,6.12500338 C7.61331137,6.12232975 7.47930945,6.08580721 7.35963553,6.01860339 C7.0593118,6.89745422 6.90036485,7.8197498 6.88891047,8.75000306 L6.0278018,8.75000306 C5.55222461,8.75000306 5.16669313,9.14175385 5.16669313,9.62500295 C5.16669313,10.108252 5.55222461,10.5 6.0278018,10.5 L24.9721926,10.5 C25.4477697,10.5 25.8333012,10.108252 25.8333012,9.62500295 C25.8333012,9.14175385 25.4477697,8.75000306 24.9721926,8.75000306 Z M15.4999972,7.0000037 C14.5488428,7.0000037 13.7777798,6.21650168 13.7777798,5.25000349 C13.7777798,4.28350529 14.5488428,3.5000037 15.4999972,3.5000037 C16.4511516,3.5000037 17.2222145,4.28350529 17.2222145,5.25000349 C17.2222145,6.21650168 16.4511516,7.0000037 15.4999972,7.0000037 Z" id="Shape"></path>
                    </g>
                </g>
            </g>
        </g>
    </g>
</svg>